<svg xmlns="http://www.w3.org/2000/svg" width="120" height="120" viewBox="0 0 24 24" fill="none" stroke="oklch(62.45% 0.278 3.836)" stroke-width="1.8" stroke-linecap="round" stroke-linejoin="round">
  <path d="M12 22a1 1 0 0 1 0-20 10 9 0 0 1 10 9 5 5 0 0 1-5 5h-2.25a1.75 1.75 0 0 0-1.4 2.8l.3.4a1.75 1.75 0 0 1-1.4 2.8z" fill="oklch(92.951% 0.002 17.197)"/>
  <circle cx="13.5" cy="6.5" r="1.2" fill="oklch(62.45% 0.278 3.836)"/>
  <circle cx="17.5" cy="10.5" r="1.2" fill="oklch(48.495% 0.11 355.095)"/>
  <circle cx="6.5" cy="12.5" r="1.2" fill="oklch(56.273% 0.054 154.39)"/>
  <circle cx="8.5" cy="7.5" r="1.2" fill="oklch(24.155% 0.049 89.07)"/>
  <circle cx="9.5" cy="15.5" r="1" fill="oklch(64.8% 0.15 160)"/>
  <circle cx="14.5" cy="14.5" r="1" fill="oklch(84.71% 0.199 83.87)"/>
</svg>